<?xml version="1.0" encoding="UTF-8" standalone="no"?>
<svg
   xmlns:dc="http://purl.org/dc/elements/1.1/"
   xmlns:cc="http://creativecommons.org/ns#"
   xmlns:rdf="http://www.w3.org/1999/02/22-rdf-syntax-ns#"
   xmlns:svg="http://www.w3.org/2000/svg"
   xmlns="http://www.w3.org/2000/svg"
   xmlns:sodipodi="http://sodipodi.sourceforge.net/DTD/sodipodi-0.dtd"
   xmlns:inkscape="http://www.inkscape.org/namespaces/inkscape"
   xml:space="preserve"
   width="2341px"
   height="674px"
   version="1.1"
   style="shape-rendering:geometricPrecision; text-rendering:geometricPrecision; image-rendering:optimizeQuality; fill-rule:evenodd; clip-rule:evenodd"
   viewBox="0 0 23412 6745"
   id="svg55"
   sodipodi:docname="storage2day_grey_color.svg"
   inkscape:version="1.0.1 (3bc2e813f5, 2020-09-07)"><metadata
   id="metadata59"><rdf:RDF><cc:Work
       rdf:about=""><dc:format>image/svg+xml</dc:format><dc:type
         rdf:resource="http://purl.org/dc/dcmitype/StillImage" /><dc:title></dc:title></cc:Work></rdf:RDF></metadata><sodipodi:namedview
   pagecolor="#ffffff"
   bordercolor="#666666"
   borderopacity="1"
   objecttolerance="10"
   gridtolerance="10"
   guidetolerance="10"
   inkscape:pageopacity="0"
   inkscape:pageshadow="2"
   inkscape:window-width="1868"
   inkscape:window-height="1051"
   id="namedview57"
   showgrid="false"
   inkscape:zoom="0.45706963"
   inkscape:cx="1170.5"
   inkscape:cy="337"
   inkscape:window-x="52"
   inkscape:window-y="0"
   inkscape:window-maximized="1"
   inkscape:current-layer="svg55" />
 <defs
   id="defs4">
  <style
   type="text/css"
   id="style2">
   <![CDATA[
    .fil0 {fill:#1E3888}
    .fil3 {fill:#47A8BD}
    .fil1 {fill:#F5E663}
    .fil4 {fill:#FFAD69}
    .fil2 {fill:white}
   ]]>
  </style>
 
  
  
  
  
  
  
  
  
  
  
  
  
  
  
 </defs>
 <path
   class="fil0"
   d="M 5681,2556 C 5612,2406 5542,2280 5444,2137 5323,1959 5219,1830 5065,1678 4915,1528 4740,1386 4562,1269 4382,1152 4234,1076 4035,995 3836,915 3675,868 3466,826 3295,793 3153,777 2986,772 V 0 c 71,2 134,5 225,14 133,12 270,31 401,56 131,26 201,42 329,78 127,37 260,82 382,133 122,49 250,108 367,171 117,63 180,100 291,171 112,72 225,156 329,238 103,84 207,176 300,270 94,95 143,147 229,250 85,103 169,215 244,323 75,110 112,173 176,288 46,82 91,173 133,262 z"
   id="path7" /><path
   class="fil1"
   d="M 185,4890 C 133,4753 96,4627 61,4468 28,4313 7,4145 0,3983 h 773 c 11,209 51,408 124,605 z"
   id="path9" /><path
   class="fil0"
   d="m 3684,4522 c 148,-185 230,-415 230,-651 0,-531 -405,-978 -928,-1034 v -843 c 207,10 385,51 591,134 241,98 440,229 626,414 183,183 300,356 401,596 101,240 150,473 150,735 0,260 -40,462 -136,703 -84,208 -192,383 -337,543 z"
   id="path11" /><g
   id="_264272992"
   style="fill:#4d4d4d">
   <path
   class="fil2"
   d="m 6451,4510 164,-224 c 149,119 294,191 474,191 199,0 293,-98 293,-224 0,-152 -187,-218 -370,-288 -222,-85 -475,-202 -475,-484 0,-279 223,-487 590,-487 224,0 405,91 541,198 l -164,214 c -115,-85 -234,-145 -372,-145 -181,0 -267,91 -267,207 0,143 173,197 355,263 234,87 490,190 490,506 0,278 -222,507 -632,507 -229,-5 -466,-101 -627,-234 z"
   id="path13"
   style="fill:#4d4d4d" />
   <path
   class="fil2"
   d="m 8150,4155 v -841 h -241 v -260 l 257,-18 40,-461 h 293 v 461 h 433 v 280 h -433 v 845 c 0,199 70,302 243,302 58,0 131,-18 178,-40 l 63,256 c -94,30 -206,61 -326,61 -376,-1 -507,-234 -507,-585 z"
   id="path15"
   style="fill:#4d4d4d" />
   <path
   class="fil2"
   d="m 9109,3871 c 0,-557 372,-878 784,-878 412,0 784,321 784,878 0,552 -372,869 -784,869 -412,-1 -784,-319 -784,-869 z m 1210,0 c 0,-355 -164,-590 -428,-590 -260,0 -424,235 -424,590 0,351 164,585 424,585 265,-2 428,-234 428,-585 z"
   id="path17"
   style="fill:#4d4d4d" />
   <path
   class="fil2"
   d="m 11052,3035 h 285 l 28,300 h 8 c 119,-215 294,-342 472,-342 82,0 136,12 188,36 l -63,302 c -57,-17 -99,-28 -165,-28 -137,0 -301,95 -406,358 v 1039 h -347 z"
   id="path19"
   style="fill:#4d4d4d" />
   <path
   class="fil2"
   d="m 12192,4258 c 0,-357 302,-541 997,-618 -3,-193 -73,-363 -318,-363 -176,0 -338,79 -482,170 l -131,-236 c 173,-108 406,-218 673,-218 415,0 606,263 606,705 v 1002 h -285 l -30,-190 h -8 c -152,131 -330,230 -530,230 -289,-1 -492,-188 -492,-482 z m 995,13 v -409 c -494,61 -660,185 -660,372 0,164 112,230 261,230 146,0 263,-69 399,-193 z"
   id="path21"
   style="fill:#4d4d4d" />
   <path
   class="fil2"
   d="m 13861,5009 c 0,-139 88,-269 243,-363 v -16 c -86,-50 -152,-139 -152,-276 0,-130 94,-242 185,-309 v -12 c -112,-87 -218,-244 -218,-442 0,-378 300,-598 644,-598 94,0 178,17 243,42 h 590 v 260 h -318 c 63,66 108,178 108,305 0,363 -275,573 -623,573 -75,0 -160,-18 -234,-51 -54,49 -91,96 -91,177 0,99 67,164 280,164 h 305 c 393,0 599,120 599,405 0,321 -339,581 -871,581 -398,-2 -690,-150 -690,-440 z m 1228,-89 c 0,-140 -109,-181 -313,-181 h -251 c -79,0 -154,-9 -224,-25 -99,73 -143,157 -143,243 0,164 169,260 445,260 292,0 486,-141 486,-297 z m -210,-1329 c 0,-223 -139,-354 -314,-354 -176,0 -314,127 -314,354 0,222 143,358 314,358 171,0 314,-136 314,-358 z"
   id="path23"
   style="fill:#4d4d4d" />
   <path
   class="fil2"
   d="m 15560,3871 c 0,-541 370,-878 760,-878 441,0 677,317 677,791 0,66 -7,136 -16,176 h -1080 c 28,318 227,508 515,508 148,0 275,-45 396,-124 l 120,222 c -153,103 -345,176 -564,176 -448,-3 -808,-323 -808,-871 z m 1138,-152 c 0,-288 -130,-454 -371,-454 -210,0 -393,161 -428,454 z"
   id="path25"
   style="fill:#4d4d4d" />
   <path
   class="fil2"
   d="m 17236,4590 c 748,-644 1044,-1100 1044,-1498 0,-276 -139,-491 -450,-491 -190,0 -363,119 -491,276 l -111,-106 c 165,-185 354,-318 619,-318 384,0 611,252 611,632 0,463 -358,927 -944,1475 120,-8 248,-17 363,-17 h 688 v 157 h -1329 z"
   id="path27"
   style="fill:#4d4d4d" />
   <path
   class="fil2"
   d="m 18801,3895 c 0,-520 333,-850 714,-850 194,0 325,73 482,197 l -13,-290 v -656 h 177 v 2408 h -145 l -21,-203 h -5 c -131,131 -309,243 -519,243 -407,-5 -670,-307 -670,-849 z m 1183,435 v -932 c -164,-145 -300,-199 -450,-199 -309,0 -545,300 -545,696 0,418 185,690 512,690 173,0 323,-87 483,-255 z"
   id="path29"
   style="fill:#4d4d4d" />
   <path
   class="fil2"
   d="m 20569,4293 c 0,-358 318,-527 1030,-609 7,-239 -62,-487 -370,-487 -211,0 -396,99 -508,185 l -78,-128 c 124,-85 347,-211 611,-211 384,0 520,276 520,632 v 1023 h -148 l -18,-206 h -5 c -164,133 -358,245 -564,245 -262,2 -470,-143 -470,-444 z m 1029,46 v -524 c -636,73 -854,222 -854,470 0,221 152,305 330,305 180,0 333,-84 524,-251 z"
   id="path31"
   style="fill:#4d4d4d" />
   <path
   class="fil2"
   d="m 22052,5393 40,-148 c 33,12 85,24 131,24 194,0 324,-176 403,-408 l 42,-136 -660,-1638 h 190 l 376,986 c 50,140 111,309 169,454 h 16 c 49,-145 99,-314 145,-454 l 330,-986 h 178 l -631,1802 c -96,277 -260,539 -557,539 -64,-2 -127,-14 -172,-35 z"
   id="path33"
   style="fill:#4d4d4d" />
  </g><path
   class="fil0"
   d="m 4974,3757 c -12,-249 -64,-475 -164,-710 -113,-267 -244,-461 -449,-665 -206,-207 -429,-355 -700,-463 -232,-94 -436,-140 -675,-150 V 997 c 148,5 277,21 436,51 196,38 344,82 529,157 185,75 321,146 489,255 166,108 328,239 468,378 141,142 239,261 351,427 112,165 185,302 264,483 78,183 123,330 165,526 34,155 54,323 61,485 h -775 z"
   id="path36" /><path
   class="fil0"
   d="m 4438,5276 c 168,-185 292,-382 386,-618 94,-232 140,-438 150,-675 h 774 c -5,146 -21,277 -51,436 -38,196 -82,344 -157,529 -75,185 -147,321 -255,489 -87,134 -190,267 -300,386 z"
   id="path38" /><path
   class="fil3"
   d="m 2874,5749 c -260,0 -463,-40 -704,-136 -242,-97 -440,-228 -625,-413 -157,-158 -263,-306 -354,-493 l 775,-330 c 185,330 529,534 908,534 237,0 466,-82 651,-230 l 597,595 c -153,140 -309,238 -513,323 -241,103 -475,150 -735,150 z"
   id="path40" /><path
   class="fil3"
   d="m 2986,5971 c 249,-12 476,-64 710,-164 231,-98 409,-211 585,-372 l 547,547 c -109,101 -212,181 -346,272 -164,112 -300,185 -484,264 -183,78 -331,124 -525,166 -156,33 -323,54 -486,61 v -774 z"
   id="path42" /><path
   class="fil3"
   d="m 2762,6745 c -148,-6 -277,-21 -436,-51 -196,-38 -344,-82 -529,-157 -185,-75 -322,-147 -489,-255 -135,-87 -267,-190 -386,-300 l 546,-547 c 185,168 383,292 618,386 233,94 439,140 676,150 z"
   id="path44" /><path
   class="fil4"
   d="m 1625,2464 c 154,-140 310,-238 514,-323 206,-88 405,-135 621,-147 v 843 c -199,21 -384,98 -539,224 z"
   id="path46" /><path
   class="fil1"
   d="m 0,3757 c 5,-146 21,-277 51,-436 31,-159 64,-285 117,-424 l 715,289 c -66,191 -101,371 -111,571 z"
   id="path48" /><path
   class="fil4"
   d="m 922,1758 c 108,-101 209,-181 344,-272 134,-91 248,-156 382,-218 l 302,710 c -181,87 -333,189 -482,325 z"
   id="path50" /><path
   class="fil1"
   d="m 1102,4501 c -74,-204 -109,-405 -109,-630 0,-260 41,-465 137,-704 83,-208 192,-382 337,-543 l 595,596 c -148,185 -230,413 -230,651 0,101 15,202 45,300 z"
   id="path52" />
</svg>
